<?xml version="1.0" encoding="utf-8"?>
<!-- Generator: Adobe Illustrator 21.1.0, SVG Export Plug-In . SVG Version: 6.00 Build 0)  -->
<svg version="1.1" id="Calque_2" xmlns="http://www.w3.org/2000/svg" xmlns:xlink="http://www.w3.org/1999/xlink" x="0px" y="0px"
	 viewBox="0 0 402 80" style="enable-background:new 0 0 402 80;" xml:space="preserve">
<style type="text/css">
	.st0{fill:#FFFFFF;}
	.st1{enable-background:new    ;}
</style>
<path class="st0" d="M55.8,61.8h10.7V19.3H55.8V61.8z M109.4,33.3c0-7.7-5.2-14.1-16.2-14.1H71.1v42.6h10.4V28.1H94
	c3.7,0,5.2,2.5,5.2,4.9c0,2.8-1.5,4.9-5.2,4.9h-8.9l13.5,23.6h10.4l-9.2-15.6C106.3,44.4,109.4,39.5,109.4,33.3z M22.7,19.3
	L1.2,61.8h12.9l3.4-6.7h14.7l-4.6-9.5h-6.1L27,34l13.8,27.9h12.9L31.2,19.3H22.7z M223,35.8c-8.6-1.8-11.6-2.8-11.6-5.5
	c0-2.5,3.1-3.7,8-3.7c4.6,0,10.4,1.8,13.5,4l3.4-8.6c-4.9-2.1-11-4-19-4c-10.4,0-16.8,6.1-16.8,13.5s5.5,10.7,15.9,12.9
	c8.3,1.8,10.4,2.8,10.4,5.2c0,2.5-3.4,3.4-7.7,3.4c-5.8,0-11.3-1.8-16.5-4.3l-3.1,8.6c6.1,2.8,12.9,5.2,20.5,5.2
	c12.9,0,18.1-6.1,18.1-13.5C238.3,42.8,233.7,37.9,223,35.8z M185.6,18.9v23.9c0,7.4-4.3,10.4-9.5,10.4c-5.2,0-9.5-3.1-9.5-10.4
	V18.9h-10.7v24.2c0,15.3,8.9,19.9,20.2,19.9c11,0,20.2-4.6,20.2-19.9V18.9H185.6z M147,39.8c2.8-1.8,3.7-5.2,3.7-8.9
	c0-6.7-5.5-11.9-12.6-11.9h-24.8v42.6h26l0,0c7.4,0,13.5-5.5,13.5-12.6C152.6,44.7,149.8,41.6,147,39.8z M123.5,28.1h14.7
	c2.1,0,3.7,1.5,3.7,3.7s-1.8,3.7-3.7,3.7h-14.7V28.1z M138.5,53h-15v-8.3h15c2.5,0,4.6,1.8,4.6,4.3C143.1,50.8,140.9,53,138.5,53z"
	/>
<g class="st1">
	<path class="st0" d="M255.4,62.5l-11.7-44h6l6.7,28.9c0.7,3,1.3,6,1.9,9c1.1-4.7,1.8-7.4,2-8.1l8.4-29.7h7l6.3,22.3
		c1.6,5.5,2.7,10.7,3.4,15.6c0.6-2.8,1.3-6,2.2-9.6l6.9-28.3h5.9l-12.1,44h-5.6l-9.3-33.6c-0.8-2.8-1.2-4.5-1.4-5.2
		c-0.5,2-0.9,3.7-1.3,5.2l-9.3,33.6H255.4z"/>
	<path class="st0" d="M301.9,46.5c0-5.9,1.6-10.3,4.9-13.1c2.7-2.4,6.1-3.5,10-3.5c4.4,0,8,1.4,10.8,4.3c2.8,2.9,4.2,6.8,4.2,11.9
		c0,4.1-0.6,7.3-1.8,9.7c-1.2,2.4-3,4.2-5.4,5.5s-4.9,2-7.7,2c-4.5,0-8.1-1.4-10.8-4.3C303.3,56,301.9,51.9,301.9,46.5z M307.5,46.5
		c0,4.1,0.9,7.1,2.7,9.2c1.8,2,4,3,6.7,3c2.7,0,4.9-1,6.7-3.1c1.8-2,2.7-5.2,2.7-9.3c0-3.9-0.9-6.9-2.7-9c-1.8-2-4-3-6.7-3
		c-2.7,0-4.9,1-6.7,3C308.4,39.4,307.5,42.4,307.5,46.5z"/>
	<path class="st0" d="M338.1,62.5V30.6h4.9v4.8c1.2-2.3,2.4-3.8,3.4-4.5c1.1-0.7,2.2-1.1,3.5-1.1c1.8,0,3.7,0.6,5.6,1.7l-1.9,5
		c-1.3-0.8-2.6-1.2-4-1.2c-1.2,0-2.2,0.4-3.2,1.1c-0.9,0.7-1.6,1.7-2,3c-0.6,1.9-0.9,4-0.9,6.3v16.7H338.1z"/>
	<path class="st0" d="M358.5,62.5v-44h5.4v44H358.5z"/>
	<path class="st0" d="M393,62.5v-4c-2,3.2-5,4.7-8.9,4.7c-2.5,0-4.9-0.7-7-2.1s-3.8-3.4-5-5.9c-1.2-2.5-1.8-5.4-1.8-8.7
		c0-3.2,0.5-6.1,1.6-8.7c1.1-2.6,2.7-4.6,4.8-6s4.5-2.1,7.1-2.1c1.9,0,3.6,0.4,5.1,1.2s2.7,1.9,3.7,3.2V18.4h5.4v44H393z
		 M375.9,46.5c0,4.1,0.9,7.1,2.6,9.2s3.8,3,6.1,3c2.4,0,4.4-1,6-2.9c1.7-1.9,2.5-4.9,2.5-8.8c0-4.4-0.8-7.6-2.5-9.6
		c-1.7-2-3.8-3.1-6.2-3.1c-2.4,0-4.4,1-6,2.9C376.7,39.2,375.9,42.3,375.9,46.5z"/>
</g>
</svg>
